<?xml version="1.0" standalone="no"?>
<!DOCTYPE svg PUBLIC "-//W3C//DTD SVG 20010904//EN"
 "http://www.w3.org/TR/2001/REC-SVG-20010904/DTD/svg10.dtd">
<svg version="1.0" xmlns="http://www.w3.org/2000/svg"
 width="700.000000pt" height="700.000000pt" viewBox="0 0 700.000000 700.000000"
 preserveAspectRatio="xMidYMid meet">
<metadata>
Created by potrace 1.11, written by Peter Selinger 2001-2013
</metadata>
<g transform="translate(0.000000,700.000000) scale(0.100000,-0.100000)"
fill="#000000" stroke="none">
<path d="M1584 6981 c-46 -28 -54 -64 -54 -251 l0 -167 -168 0 c-92 0 -180 -3
-194 -6 -15 -4 -37 -22 -50 -40 -21 -30 -23 -42 -24 -170 -1 -216 8 -224 269
-222 l167 0 0 -217 0 -218 -392 -1 c-216 0 -405 -2 -419 -4 -43 -6 -106 -43
-132 -77 -41 -55 -50 -80 -49 -138 0 -47 34 -144 232 -670 128 -338 233 -621
233 -628 2 -10 -20 -14 -88 -16 -131 -5 -192 -36 -234 -122 -21 -41 -24 -62
-25 -183 -1 -75 2 -154 7 -176 11 -55 49 -110 100 -142 40 -26 49 -28 185 -31
98 -3 142 -7 143 -15 3 -63 -5 -295 -15 -467 -7 -102 -10 -142 -22 -245 -3
-27 -7 -66 -9 -85 -7 -65 -17 -145 -21 -165 -2 -11 -6 -40 -9 -65 -3 -25 -14
-94 -25 -155 -10 -60 -22 -126 -25 -145 -3 -19 -22 -107 -42 -195 -19 -88 -38
-172 -40 -187 l-5 -28 871 0 c524 0 871 4 871 9 0 5 -9 47 -20 93 -10 46 -21
94 -24 108 -3 14 -8 36 -10 50 -12 56 -33 166 -61 325 -16 87 -48 332 -60 450
-3 33 -8 76 -10 95 -5 36 -15 186 -20 300 -5 104 -7 311 -3 315 2 2 63 5 135
6 145 1 184 12 237 68 49 52 62 109 60 271 -2 189 -21 235 -119 290 -32 18
-58 23 -135 25 -82 3 -95 5 -92 19 2 9 106 291 232 627 126 336 231 629 233
652 5 49 -21 128 -55 164 -13 14 -41 34 -63 46 -46 24 -87 26 -572 27 l-303 0
0 218 0 218 166 -1 c257 -1 267 6 270 203 3 146 -6 183 -47 213 -28 20 -43 21
-210 22 l-179 0 0 169 c0 259 -8 268 -222 268 -113 0 -138 -3 -164 -19z"/>
<path d="M4207 4367 c-51 -17 -52 -29 -51 -498 1 -458 3 -477 50 -574 31 -66
66 -102 204 -220 63 -53 139 -118 169 -144 30 -25 57 -48 61 -51 4 -3 6 -32 5
-65 -2 -33 -6 -143 -9 -245 -4 -102 -9 -221 -11 -265 -2 -44 -6 -159 -10 -255
-3 -96 -8 -203 -10 -237 l-5 -63 868 0 868 0 -2 33 c-1 17 -5 104 -8 192 -6
152 -9 222 -21 530 -3 72 -8 183 -11 248 -6 115 -5 119 18 138 12 11 34 30 48
42 14 13 54 47 90 76 36 30 67 57 70 60 3 4 21 19 40 35 122 98 176 173 205
281 15 61 17 108 16 652 l-1 282 -24 28 -24 28 -211 0 -211 0 -27 -27 -27 -27
-1 -185 c0 -101 -3 -188 -7 -192 -8 -8 -316 -9 -324 -1 -3 2 -6 91 -7 196 -2
183 -3 191 -24 213 l-23 22 -397 1 -398 1 -27 -27 -28 -27 0 -191 0 -191 -47
-1 c-75 -1 -246 -1 -271 0 -22 1 -22 2 -22 134 2 245 2 243 -24 274 l-24 27
-200 1 c-110 0 -211 -3 -225 -8z m1344 -1321 c52 -23 96 -66 117 -117 18 -40
20 -71 20 -270 1 -123 -1 -231 -3 -239 -4 -13 -37 -15 -217 -14 l-213 0 -3
230 c-2 159 1 243 10 274 14 53 81 125 130 139 50 14 122 13 159 -3z"/>
<path d="M640 1309 c-67 -7 -109 -28 -145 -71 -49 -58 -57 -92 -58 -233 l-1
-130 -161 -80 c-198 -99 -217 -112 -249 -177 -25 -51 -26 -54 -23 -257 2 -177
5 -211 20 -239 28 -52 85 -99 133 -111 59 -15 3151 -16 3191 0 51 19 104 62
126 103 20 38 22 58 25 244 l3 204 -26 55 c-32 65 -51 78 -261 182 l-151 74 0
133 c-1 107 -5 140 -20 176 -23 51 -77 101 -128 118 -27 9 -311 12 -1128 13
-601 1 -1117 -1 -1147 -4z"/>
<path d="M4590 1310 c-94 -8 -153 -44 -191 -118 -19 -38 -22 -61 -24 -178 0
-73 -3 -135 -6 -138 -2 -2 -82 -44 -178 -92 -248 -126 -253 -134 -255 -409 -1
-151 6 -212 29 -262 18 -37 76 -85 124 -101 25 -9 389 -12 1386 -12 l1351 0
52 26 c56 28 107 92 118 149 3 17 4 117 2 221 -3 185 -4 190 -30 236 -32 54
-74 81 -274 179 l-131 64 0 120 c0 66 -6 139 -12 163 -15 54 -60 105 -116 132
-44 21 -48 21 -912 23 -477 1 -897 0 -933 -3z"/>
</g>
</svg>
