<svg id="figure" width="100" height="100" viewBox="0 0 100 100" preserveAspectRatio="none"  xmlns="http://www.w3.org/2000/svg">

<defs> -->
   <mask id="stripe">
      <rect x="0"
            y="0"
            width="100"
            height="100"
            fill="white" />
 <rect  x="45" y="20" width="20" height="6" rx="5" transform="rotate(-40)" transform-origin="55 20"/>
    </mask>
  </defs>


<g id="bishop">

<g id="bishop-basement">
<rect x="25" y="90" width="50" height="3" />
<path  d="M 25 90, Q 37 75 27 72 H 73 Q 63 75 75 90,  M 42.5 69 L 45 60 h 10 L 57.5 69 Z"/>
</g>

<g id="bishop-head">
<path  d="M 25 57, Q 34 47 27 45, H 73 Q 66 47 75 57  Z"/>
<path  d="M 42.5 42, C 32.5 31.5 50 12.5 47.5 10, H 52.5 C 50 12.5 67.5 32.5 57.5 42 H 42.5, M 45 8, V 7, H 55, V 8, H 45 Z" mask="url(#stripe)"/>
</g>

</g>
</svg>